# xmcd CD database file
#
# Track frame offsets:
#	150
#	12515
#	25457
#	37270
#	51651
#	64799
#	79032
#	93067
#	105149
#	120549
#	134936
#	149086
#	163455
#	175741
#	190494
#	204777
#	218293
#	230302
#	242866
#	255322
#	267427
#	281470
#	296139
#	310859
#	324872
#	339335
#
# Disc length: 4717 seconds
#
# Revision: 0
# Processed by: cddbd v1.5.2PL0 Copyright (c) Steve Scherf et al.
# Submitted via: CDex 1.51
#
DISCID=82126b1a
DTITLE=George Shearing - Lullaby of Birdland - CD1
DYEAR=2011
DGENRE=Jazz
TTITLE0=Lullaby of Birdland
TTITLE1=Stomp in F
TTITLE2=Squeezin' the Blues
TTITLE3=The Sheik of Araby
TTITLE4=Missouri Scrambler
TTITLE5=Dinah
TTITLE6=Delayed Action
TTITLE7=Jump For Joy
TTITLE8=Champagne
TTITLE9=More Than You Know
TTITLE10=Rosetta
TTITLE11=A Ghost of a Chance
TTITLE12=Five Flat Furry
TTITLE13=Trunk Call
TTITLE14=It's easy to remember
TTITLE15=Have You Met Miss Jones?
TTITLE16=Bop's Your Uncle
TTITLE17=Consternation
TTITLE18=Poinciana
TTITLE19=Cherokee
TTITLE20=Bebop's Fables
TTITLE21=Sorry, wrong Rhumba
TTITLE22=Moon Over Miami
TTITLE23=The Continental
TTITLE24=Summertime
TTITLE25=September in the Rain
EXTD=YEAR: 2011
EXTT0=
EXTT1=
EXTT2=
EXTT3=
EXTT4=
EXTT5=
EXTT6=
EXTT7=
EXTT8=
EXTT9=
EXTT10=
EXTT11=
EXTT12=
EXTT13=
EXTT14=
EXTT15=
EXTT16=
EXTT17=
EXTT18=
EXTT19=
EXTT20=
EXTT21=
EXTT22=
EXTT23=
EXTT24=
EXTT25=
PLAYORDER=
